<svg width="128" height="128" viewBox="0 0 128 128" fill="none" xmlns="http://www.w3.org/2000/svg">
<rect width="128" height="128" fill="black"/>
<path d="M98.4251 26.9648H61.0153C54.0688 26.9648 48.4404 32.506 48.4404 39.345C48.4404 46.184 54.0688 51.7252 61.0153 51.7252H98.4251C105.372 51.7252 111 46.184 111 39.345C111 32.506 105.372 26.9648 98.4251 26.9648Z" fill="white"/>
<path d="M60.783 51.6595H61.7343L65.2782 38.0645L57.7833 39.31H48.4124C48.4124 46.1296 42.8775 51.6551 36.0463 51.6551H29.1442L27.3789 53.5278L41.2936 64.0045H48.4124C48.4124 57.1849 53.9473 51.6595 60.7786 51.6595H60.783Z" fill="white"/>
<path d="M36.0464 51.6602H23.3662C16.5349 51.6602 11 57.1856 11 64.0052C11 70.8248 16.5349 76.3503 23.3662 76.3503H36.0464C42.8777 76.3503 48.4126 70.8248 48.4126 64.0052C48.4126 57.1856 42.8777 51.6602 36.0464 51.6602Z" fill="white"/>
<path d="M98.6355 101.089L72.9687 101.089C66.1385 101.089 60.6045 95.5483 60.6045 88.7093C60.6045 81.8704 66.1385 76.3292 72.9687 76.3292L98.6355 76.3291C105.466 76.3291 111 81.8703 111 88.7092C111 95.5482 105.466 101.089 98.6355 101.089Z" fill="white"/>
</svg>
