<svg xmlns="http://www.w3.org/2000/svg" viewBox="0 0 41 41" shape-rendering="crispEdges"><rect width="41" height="41" fill="#FFFFFF"/><path d="M4,4h7v1h-7zM13,4h2v1h-2zM16,4h1v1h-1zM18,4h2v1h-2zM22,4h4v1h-4zM27,4h2v1h-2zM30,4h7v1h-7zM4,5h1v1h-1zM10,5h1v1h-1zM13,5h4v1h-4zM19,5h2v1h-2zM22,5h1v1h-1zM24,5h2v1h-2zM30,5h1v1h-1zM36,5h1v1h-1zM4,6h1v1h-1zM6,6h3v1h-3zM10,6h1v1h-1zM12,6h1v1h-1zM15,6h2v1h-2zM18,6h2v1h-2zM25,6h2v1h-2zM30,6h1v1h-1zM32,6h3v1h-3zM36,6h1v1h-1zM4,7h1v1h-1zM6,7h3v1h-3zM10,7h1v1h-1zM12,7h2v1h-2zM15,7h1v1h-1zM19,7h1v1h-1zM22,7h1v1h-1zM25,7h1v1h-1zM27,7h2v1h-2zM30,7h1v1h-1zM32,7h3v1h-3zM36,7h1v1h-1zM4,8h1v1h-1zM6,8h3v1h-3zM10,8h1v1h-1zM12,8h1v1h-1zM15,8h7v1h-7zM24,8h1v1h-1zM26,8h1v1h-1zM30,8h1v1h-1zM32,8h3v1h-3zM36,8h1v1h-1zM4,9h1v1h-1zM10,9h1v1h-1zM12,9h1v1h-1zM17,9h2v1h-2zM22,9h2v1h-2zM26,9h3v1h-3zM30,9h1v1h-1zM36,9h1v1h-1zM4,10h7v1h-7zM12,10h1v1h-1zM14,10h1v1h-1zM16,10h1v1h-1zM18,10h1v1h-1zM20,10h1v1h-1zM22,10h1v1h-1zM24,10h1v1h-1zM26,10h1v1h-1zM28,10h1v1h-1zM30,10h7v1h-7zM12,11h2v1h-2zM15,11h3v1h-3zM20,11h1v1h-1zM22,11h6v1h-6zM4,12h1v1h-1zM6,12h5v1h-5zM13,12h2v1h-2zM18,12h1v1h-1zM23,12h1v1h-1zM26,12h3v1h-3zM30,12h5v1h-5zM7,13h1v1h-1zM9,13h1v1h-1zM11,13h1v1h-1zM13,13h2v1h-2zM17,13h1v1h-1zM19,13h3v1h-3zM23,13h2v1h-2zM27,13h1v1h-1zM30,13h2v1h-2zM33,13h3v1h-3zM7,14h1v1h-1zM10,14h1v1h-1zM14,14h2v1h-2zM17,14h2v1h-2zM21,14h1v1h-1zM24,14h1v1h-1zM26,14h1v1h-1zM32,14h1v1h-1zM34,14h1v1h-1zM4,15h1v1h-1zM9,15h1v1h-1zM12,15h1v1h-1zM14,15h1v1h-1zM17,15h1v1h-1zM20,15h3v1h-3zM24,15h1v1h-1zM27,15h1v1h-1zM29,15h1v1h-1zM32,15h4v1h-4zM4,16h2v1h-2zM9,16h3v1h-3zM13,16h1v1h-1zM15,16h1v1h-1zM18,16h1v1h-1zM20,16h1v1h-1zM24,16h4v1h-4zM31,16h1v1h-1zM33,16h1v1h-1zM4,17h1v1h-1zM8,17h2v1h-2zM12,17h2v1h-2zM16,17h1v1h-1zM19,17h1v1h-1zM21,17h2v1h-2zM28,17h2v1h-2zM32,17h2v1h-2zM35,17h2v1h-2zM4,18h2v1h-2zM7,18h1v1h-1zM9,18h7v1h-7zM19,18h3v1h-3zM24,18h2v1h-2zM29,18h4v1h-4zM35,18h1v1h-1zM4,19h6v1h-6zM11,19h2v1h-2zM14,19h2v1h-2zM17,19h1v1h-1zM19,19h1v1h-1zM25,19h1v1h-1zM28,19h3v1h-3zM32,19h2v1h-2zM5,20h1v1h-1zM7,20h2v1h-2zM10,20h1v1h-1zM15,20h2v1h-2zM18,20h4v1h-4zM26,20h1v1h-1zM28,20h2v1h-2zM31,20h2v1h-2zM34,20h1v1h-1zM36,20h1v1h-1zM4,21h3v1h-3zM11,21h1v1h-1zM13,21h1v1h-1zM19,21h1v1h-1zM22,21h4v1h-4zM27,21h1v1h-1zM29,21h3v1h-3zM33,21h2v1h-2zM4,22h3v1h-3zM8,22h3v1h-3zM14,22h7v1h-7zM22,22h1v1h-1zM24,22h2v1h-2zM29,22h4v1h-4zM34,22h3v1h-3zM5,23h1v1h-1zM9,23h1v1h-1zM11,23h2v1h-2zM14,23h1v1h-1zM18,23h2v1h-2zM25,23h4v1h-4zM30,23h5v1h-5zM36,23h1v1h-1zM6,24h1v1h-1zM8,24h1v1h-1zM10,24h1v1h-1zM12,24h1v1h-1zM14,24h2v1h-2zM19,24h1v1h-1zM22,24h2v1h-2zM25,24h1v1h-1zM28,24h3v1h-3zM33,24h1v1h-1zM35,24h2v1h-2zM4,25h1v1h-1zM6,25h2v1h-2zM9,25h1v1h-1zM11,25h1v1h-1zM17,25h1v1h-1zM19,25h2v1h-2zM24,25h3v1h-3zM31,25h1v1h-1zM34,25h1v1h-1zM36,25h1v1h-1zM4,26h1v1h-1zM8,26h1v1h-1zM10,26h1v1h-1zM13,26h1v1h-1zM15,26h1v1h-1zM22,26h2v1h-2zM25,26h4v1h-4zM30,26h1v1h-1zM33,26h3v1h-3zM4,27h1v1h-1zM7,27h1v1h-1zM9,27h1v1h-1zM11,27h1v1h-1zM13,27h1v1h-1zM15,27h3v1h-3zM20,27h1v1h-1zM23,27h5v1h-5zM31,27h1v1h-1zM34,27h2v1h-2zM4,28h1v1h-1zM7,28h8v1h-8zM21,28h1v1h-1zM23,28h2v1h-2zM26,28h9v1h-9zM36,28h1v1h-1zM12,29h1v1h-1zM14,29h1v1h-1zM16,29h2v1h-2zM19,29h6v1h-6zM28,29h1v1h-1zM32,29h1v1h-1zM34,29h2v1h-2zM4,30h7v1h-7zM14,30h3v1h-3zM18,30h1v1h-1zM21,30h1v1h-1zM26,30h3v1h-3zM30,30h1v1h-1zM32,30h1v1h-1zM34,30h1v1h-1zM4,31h1v1h-1zM10,31h1v1h-1zM12,31h1v1h-1zM16,31h3v1h-3zM20,31h3v1h-3zM24,31h1v1h-1zM27,31h2v1h-2zM32,31h4v1h-4zM4,32h1v1h-1zM6,32h3v1h-3zM10,32h1v1h-1zM12,32h2v1h-2zM18,32h1v1h-1zM20,32h1v1h-1zM23,32h4v1h-4zM28,32h6v1h-6zM4,33h1v1h-1zM6,33h3v1h-3zM10,33h1v1h-1zM12,33h2v1h-2zM17,33h3v1h-3zM21,33h2v1h-2zM32,33h2v1h-2zM35,33h1v1h-1zM4,34h1v1h-1zM6,34h3v1h-3zM10,34h1v1h-1zM12,34h1v1h-1zM15,34h3v1h-3zM19,34h2v1h-2zM22,34h1v1h-1zM24,34h4v1h-4zM30,34h2v1h-2zM4,35h1v1h-1zM10,35h1v1h-1zM13,35h2v1h-2zM16,35h1v1h-1zM19,35h1v1h-1zM25,35h1v1h-1zM27,35h2v1h-2zM32,35h2v1h-2zM4,36h7v1h-7zM12,36h1v1h-1zM15,36h1v1h-1zM18,36h2v1h-2zM22,36h1v1h-1zM26,36h1v1h-1zM28,36h2v1h-2zM31,36h1v1h-1zM34,36h2v1h-2z" fill="#000000"/></svg>