<svg xmlns="http://www.w3.org/2000/svg" width="1048" height="269" fill="none"><g fill="#fff" clip-path="url(#a)"><path d="M232.838 192.31V73.989h30.115v15.914h.69c6.437-10.84 17.931-19.143 34.253-19.143 14.943 0 26.897 8.303 32.644 20.758h.46c8.046-12.916 20.46-20.758 35.403-20.758 24.828 0 38.851 16.145 38.851 41.977v79.573h-31.265v-74.268c0-13.377-6.666-20.297-18.161-20.297-13.103 0-21.15 10.149-21.15 25.833v68.732h-31.264v-74.268c0-13.377-6.667-20.297-18.162-20.297-12.643 0-21.149 10.149-21.149 25.833v68.732zm237.931 3.46c-39.081 0-61.151-27.447-61.151-62.736 0-35.058 23.679-62.274 58.162-62.274 37.932 0 58.162 29.061 58.162 71.269h-85.519c2.299 18.222 12.414 29.523 30.116 29.523 12.184 0 19.31-5.535 22.759-14.531h30.805c-4.368 20.989-22.989 38.749-53.334 38.749M468.24 94.978c-16.552 0-24.598 9.917-27.357 25.371h52.415c-.92-14.992-10.805-25.371-25.058-25.371m93.092-20.988v18.912h.69c7.126-13.377 15.172-20.296 28.966-20.296 3.448 0 5.517.23 7.356.922v27.447h-.69c-20.46-2.076-35.172 8.764-35.172 33.674v57.661h-31.265V73.99zm41.285 118.32V73.989h31.265V192.31zm0-136.773V27.398h31.265v28.14zm35.318 39.21V73.99h16.322V37.086h30.575v36.903h20.231v20.758h-20.231v62.736c0 8.764 4.828 11.763 11.725 11.763 3.908 0 9.195-.231 9.195-.231v23.065s-7.126.461-19.54.461c-15.173 0-31.955-5.997-31.955-28.369V94.747z"/><path d="M784.506 29.252c-18.908 0-26.85 17.204-31.798 46.75h18.613c1.178 0 2.12.71 1.884 2.128l-.707 2.836c-.235 1.182-.706 1.655-1.884 1.655H751.53c-.235.946-.235 1.891-.471 2.837l-11.78 79.422c-9.188 60.984-30.628 79.185-53.952 79.185-12.958 0-17.434-7.327-17.434-13.237 0-4.491 3.298-8.982 9.424-8.982 10.13 0 9.423 14.655 20.261 14.655 8.717 0 17.434-20.564 21.911-53.42l14.136-100.46h-18.848c-1.178 0-2.121-.473-1.885-1.89l.707-3.074c.235-1.182.707-1.654 1.885-1.654h19.319C741.399 38.655 760.346 24 789.758 24c14.607 0 23.637 6.619 23.637 12.291 0 4.964-3.298 9.928-9.66 9.928-11.073 0-8.392-16.967-19.229-16.967"/><path d="M811.941 176.464c1.414-2.363 1.414-3.309.236-4.255s-1.885-.945-3.063.237c-3.063 3.073-8.246 8.273-12.723 8.273-4.005 0-4.712-2.364-3.769-7.328l16.492-88.877c1.178-6.618-.707-12.764-8.953-12.764-8.01 0-19.79 5.2-29.921 20.092-.942 1.418-.942 2.127 0 3.31 1.178 1.181 1.649 1.181 3.534-.71 5.183-5.2 8.953-7.8 13.665-7.8 3.534 0 4.476 2.836 3.534 7.8l-16.492 86.277c-.471 4.491-.236 13.237 9.895 13.237 7.775 0 20.026-5.2 27.565-17.492m25.259 15.837h-17.199l13.901-97.859c.707-4.964 0-7.8-3.534-7.8-4.712 0-8.717 2.6-13.665 7.8-1.885 1.891-2.356 1.891-3.534.71-1.178-1.183-1.178-1.892-.236-3.31C823.3 76.95 835.551 71.986 843.09 71.986c8.246 0 10.366 5.91 9.66 12.528l-8.011 52.239c13.901-40.42 27.801-65.003 47.12-65.003 9.895 0 12.958 5.673 12.958 9.928 0 4.964-4.005 11.819-10.602 11.819-8.246 0-10.131-9.692-12.958-9.692-17.434 0-42.879 85.568-44.057 108.496m82.56 2.126c-18.141 0-29.449-10.637-29.449-19.856 0-5.673 4.476-8.037 8.246-8.037 12.251 0 13.429 22.692 27.093 22.692 7.304 0 12.958-5.909 12.958-15.128 0-10.873-8.246-22.455-16.727-35.929-9.189-13.946-18.613-26.001-18.613-39.002 0-14.182 11.309-27.183 33.22-27.183 16.021 0 26.623 9.692 26.623 17.492 0 4.728-4.006 6.619-7.54 6.619-12.015 0-12.722-18.674-24.266-18.674-7.775 0-12.016 7.091-12.016 14.419 0 6.382 1.178 11.346 13.901 30.965 10.366 15.837 22.381 32.62 22.381 44.911 0 17.019-20.025 26.711-35.811 26.711m83.23-118.19h19.09c1.18 0 2.12.709 1.88 2.127l-.47 2.6c-.23 1.418-.71 1.655-1.88 1.655h-19.56l-13.427 90.768c-.707 4.964 0 7.327 4.005 7.327s9.662-5.2 12.722-8.273c1.18-1.182 1.65-1.182 3.06-.236.95.945 1.18 1.891-.23 4.255-7.54 12.291-19.793 17.491-27.803 17.491-9.896 0-10.131-8.745-9.66-13.237l14.607-98.095H967.89c-1.178 0-2.121-.237-1.885-1.655l.471-3.073c.236-1.418.707-1.654 1.885-1.654h17.906l4.476-30.73h16.727zM97.696 194.394l16.79-29.081-39.318 10.535-16.79 29.081zm36.98-128.961 16.79-29.08 10.535 39.317-16.79 29.081zM69.713 175.812l29.081-16.79-39.317-10.535-29.081 16.79zm91.194-90.203 29.08-16.79-10.535 39.318-29.08 16.789zm-108.06 59.789H86.5l-28.847-29.762H24zm124.269-29.757h33.655l-28.847 29.762H148.27zm-121.797-7.5 29.08 16.79-10.535-39.318-29.08-16.79zm119.978 40.36 29.081 16.789-39.317 10.535-29.081-16.789zM72.768 75.668l16.79 29.081 10.535-39.318-16.79-29.08zm86.836 100.18 16.79 29.081-39.318-10.535-16.789-29.081z"/></g><defs><clipPath id="a"><path fill="#fff" d="M24 24h1000v221H24z"/></clipPath></defs></svg>