<svg xmlns="http://www.w3.org/2000/svg" width="951" height="322" fill="none"><g fill="#F6F6F6" clip-path="url(#a)"><path d="M196.281 0h60.616c.457 9.158.221 19.738.216 28.99l-.004 47.077-.009 147.31c.002 28.046-.891 65.15 2.084 92.582-9.353-.87-24.252-.312-33.946-.387-7.023-.054-22.301-.374-28.949.297q-.222-14.222-.178-28.447c-12.494 15.839-32.018 26.897-51.378 31.397-3.066.712-13.523 2.525-15.267 3.181h-26.25c-3.356-1.01-10.418-2.146-13.841-2.728-42.861-7.292-74.797-38.983-84.828-80.921-2.11-8.819-2.462-18.925-4.547-27.461v-29.819c1.07-3.647 2.139-15.738 3.288-21.182 5.193-25.411 16.92-47.421 36.716-64.342 42.538-36.363 119.555-36.916 156.195 8.568a507 507 0 0 1-.046-13.046c.298-30.301-.48-60.786.128-91.069m-56.289 274.971c48.761-5.874 66.642-48.64 61.683-93.916-4.454-40.666-33.394-68.458-76.081-64.896l-.136.021c-16.495 1.631-32.837 7.964-43.807 20.876-24.12 28.391-24.948 82.666-3.12 112.457 15.34 20.935 36.585 26.872 61.461 25.458M648.38 322c-11.321-2.041-22.93-3.245-33.894-6.668-66.955-20.909-90.405-80.208-78.169-145.797 13.712-73.502 77.997-110.712 149.736-98.257 26.287 4.922 49.593 18.891 65.158 40.91 19.958 29.829 23.427 59.883 24.044 94.754l-180.462-.057c.478 6.321.854 11.942 2.405 18.108 8.763 34.765 34.075 55.641 70.489 52.502 30.43-2.623 49.38-21.195 60.343-48.514 11.15 4.166 26.589 17.207 38.133 22.368 3.214 1.437 8.131 5.565 12.027 7.575-7.313 10.78-11.116 15.947-20.52 25.064-20.083 19.477-43.292 31.029-70.916 35.611-2.735.472-11.953 1.695-14.093 2.401zm-49.538-156.844c18.909.4 38.56.141 57.525.131 18.616-.005 38.652.367 57.152-.11-4.713-19.372-8.358-34.576-26.528-46.679-6.761-4.505-21.983-7.897-30.416-6.942-17.854 1.434-30.526 6.857-42.251 20.794-8.948 10.639-10.82 21.152-15.482 32.806M389.288 322c-3.444-.776-7.026-1.035-10.538-1.603a239 239 0 0 1-18.311-3.767c-71.823-17.942-97.499-83.986-82.423-152.235 15.851-71.75 83.408-107.231 153.337-92.184 25.678 5.525 49.594 21.73 63.223 44.123 14.409 23.271 18.708 44.751 20.831 71.944.413 5.33.297 14.087.84 18.715-51.279-.771-102.8.305-154.102-.121-8.814-.073-17.643.018-26.455.193 1.985 13.427 3.163 24.978 9.537 37.275 13.722 26.474 40.09 36.808 68.995 32.495a65.2 65.2 0 0 0 42.143-25.31c6.48-8.772 8.023-12.784 12.857-22.497 12.347 5.972 24.569 15.552 36.986 21.874 4.471 2.275 8.307 5.75 13.229 8.089-22.391 32.984-52.212 53.946-91.579 60.528-3.281.549-11.717 1.715-14.328 2.481zm-49.726-156.79 58.158.077c18.787-.008 38.073.215 56.817-.061-5.412-30.798-22.712-55.655-57.027-53.674-17.569 1.498-29.923 6.248-41.672 20.037-10.283 12.069-11.024 20.477-16.276 33.621M794.721 0h59.205l.005 182.517c0 45.882-1.012 87.295 2.879 133.037l-62.335-.016c.46-14.387.26-29.422.255-43.857l-.004-68.757zm97.129 259.091c11.939-.187 24.184-.065 36.136-.137 5.145-.031 18.914-.344 23.014.662v.734c-1.217 4.111-.409 47.847-.242 55.19l-58.847.01c-.474-18.288-.093-38.1-.061-56.459"/></g><defs><clipPath id="a"><path fill="#fff" d="M0 0h951v322H0z"/></clipPath></defs></svg>