<svg xmlns="http://www.w3.org/2000/svg" width="1298" height="322" fill="none"><path fill="#000" d="M234.537 5.973q.165-.033.332-.06c12.583-2.026 31.663 18.346 40.679 26.49l36.959 33.253 43.288 39.055c8.291 7.536 16.629 15.063 24.536 23.115 6.809 6.934 1.167 21.195-3.433 28.161-4.749 7.194-14.791 8.021-22.659 9.164-.184 42.122.394 84.466-1.917 126.501-.416 7.572-9.377 14.713-16.499 15.921-8.575 1.456-17.15 1.711-25.831 2.156l-38.016 1.987c-40.564 2.245-85.739 5.609-125.955 6.551q-7.642.407-15.295.456c-16.542-.039-33.361-7.541-49.121-12.277-10.154-3.05-20.86-6.703-30.673-10.678-8.145-3.298-13.455-9.069-14.508-18.009-1.647-14.658-1.504-29.638-1.522-44.366l.084-69.063-1.026-.088c-7.523-.653-14.761-1.101-19.909-7.578-4.941-6.217-12.779-21.136-5.644-28.088 15.876-15.472 35.196-28.012 52.469-42.09-.095-15.813-.837-34.477.848-50.12.331-3.078 2.446-8.21 5.549-9.733 16.245-7.974 37.457-8.227 54.926-5.074 6.405 1.156 8.775 2.563 11.797 7.163 3.852-2.768 10.952-8.167 15.051-9.585 12.258-4.241 28.02-5.597 41.036-7.352 14.605-1.969 29.92-4.255 44.454-5.812"/><path fill="#F6F6F6" d="M117.06 148.835c27.584-21.924 57.778-42.454 85.498-63.998 32.239-25.056 29.065-24.075 60.876.334a4378 4378 0 0 0 36.682 28.138 3032 3032 0 0 0 25.655 19.37c4.368 3.251 13.765 9.866 17.113 13.504 3.468 4.792 2.133 22.137 2.104 28.695l-.002 42.201.249 43.238c.065 12.158 3.608 37.421-13.417 38.715-15.194 1.154-30.564 1.883-45.796 2.693l-82.936 4.47-49.546 2.779c-7.566.385-16.277 1.229-23.833.459-3.636-.37-8.061-3.937-10.048-6.818-1.968-2.853-2.025-7.157-2.41-10.521-.389-15.021-.216-30.343-.21-45.379l-.016-87.108z"/><path fill="#F6F6F6" d="M117.06 148.835c27.584-21.924 57.778-42.454 85.498-63.998 32.239-25.056 29.065-24.075 60.876.334a4378 4378 0 0 0 36.682 28.138 3032 3032 0 0 0 25.655 19.37c4.368 3.251 13.765 9.866 17.113 13.504l-.196-.027c-5.77-.86-53.967-35.05-62.919-41.11-8.507-5.76-31.744-23.827-40.671-25.102-4.228-.604-8.34.944-12.048 2.84-10.029 5.128-20.579 14.151-29.845 20.766l-55.542 39.291c-4.689 3.339-20.123 14.762-24.64 16.766z"/><path fill="#000" d="M289.474 146.056c14.809-1.025 36.728 1.585 49.883 8.721.484 4.479.438 7.578.369 12.093-2.409 1.618-9.408 4.342-10.092 7.177-2.159 8.949-.111 17.074-2.523 26.406-7.693 29.767-38.99 31.267-64.166 28.094-14.471-3.364-19.889-16.679-21.414-30.267-.652-5.804-2.812-17.297-12.196-12.578-4.496 2.262-4.244 18.699-5.89 24.272-2.771 9.385-4.804 13.471-13.518 18.926-6.145 2.728-11.154 3.38-17.822 3.611-14.42.499-27.987 1.826-39.987-7.803-14.56-11.684-14.399-27.829-16.297-44.877-1.976-1.305-8.41-4.317-10.856-5.539-2.031-14.129.103-13.781 13.209-18.19a111.1 111.1 0 0 1 54.632-4.372c14.679 2.512 28.587 6.366 43.625 4.775 19.721-2.086 32.379-8.834 53.043-10.449"/><path fill="#F6F6F6" d="m288.26 154.966 1.063-.01.19.843-32.12 48.9c-1.349 2.031-2.588 4.506-4.679 4.926-1.077-4.199-1.94-8.694-2.821-12.959a4648 4648 0 0 1 26.714-40.424c3.859-.566 7.769-.902 11.653-1.276m-113.513 3.671 12.116.873-32.303 49.062-2.616 3.689c-2.365-4.173-3.523-7.103-4.878-11.647zm122.739-4.067 8.72.339-41.998 63.853-.881.682c-2.201-.282-4.441-2.214-6.304-3.57 13.6-19.917 27.153-41.084 40.463-61.304m-104.137 5.91 7.785 1.579c-3.593 6.141-9.216 14.176-13.272 20.338l-24.907 37.872-.604.297c-1.949-.445-4.4-2.621-6.074-3.92zm-60.452 4.206c2.875.129 4.39.261 6.09 2.701-.27 2.492-.248 1.857-1.931 4.01-3.209-.026-4.834.262-6.445-2.723.497-2.483.492-1.917 2.286-3.988m193.987-6.342c3.116-.115 4.79-.494 6.723 2.178-.142 2.415-.164 1.812-1.716 3.968-2.998.335-4.778.297-6.604-2.239.092-2.413.072-1.757 1.597-3.907m-213.318-7.562c2.301 3.554-.734 100.315.541 112.119 1.65 15.279-5.456 32.374 8.072 46.636-13.605-2.729-39.058-12.543-53.9-17.004-17.123-5.095-24.508-6.539-23.797-26.944.291-8.355.051-18.791.054-27.307l.024-78.136c16.06.102 39.459 3.177 54.734.294 3.028-.572 11.238-7.282 14.272-9.658"/><path fill="#F6F6F6" d="M237.874 15.206c2.764.255 5.635 1.188 7.779 2.96 8.836 7.3 17.348 15.196 25.867 22.863l47.389 42.685 34.057 30.654c5.566 4.984 18.334 15.847 22.26 21.39-.989 4.346-4.017 11.24-5.768 15.462l-77.216-63.27c-13.051-10.726-26.038-21.958-39.6-31.993-9.056-6.701-19.71-1.314-27.351 4.474-26.393 20.78-54.113 40.435-81.056 61.062-15.212 10.975-29.944 23.474-45.78 33.454-4.992 3.147-13.404-17.735-14.402-20.882 5.404-4.869 14.795-11.772 20.762-16.413l38.164-29.754 55.905-43.75c6.96-5.46 32.528-26.697 38.99-28.942m-8.617.949.469.263c-2.005 2.7-29.615 23.282-34.238 26.906l-66.714 52.221c-14.641 11.509-31.053 24.905-46.085 35.595-6.59.189-64.814 2.003-65.635 1.389l.964-1.197c15.438-12.227 32.715-25.681 48.555-37.423l.592.243c.148 1.574.326 2.452.69 3.992 2.488 1.573 23.681-.444 28.249-.725 11.122-9.945 21.726-21.394 32.604-31.786l-.153-21.264c7.009-5.267 22.064-18.16 30.139-19.081 23.523-2.681 47.061-6.558 70.563-9.133"/><path fill="#F6F6F6" d="m93.277 28.693.704.522c.577 2.865.32 16.76.315 20.324l-.097 44.875a630 630 0 0 1-23.263 1.64l-.783-.648c-.526-7.77-1.11-56.305 1.385-60.076 2.413-3.65 17.378-5.669 21.74-6.637Zm3.343-.214c36.614.304 29.41 2.69 29.277 36.09-5.066 4.715-9.711 9.452-14.553 14.383-3.611 3.557-10.777 11.189-14.564 13.738-.399-21.1-.09-43.012-.16-64.211m-40.109 106.25c7.682-.465 16.867-.405 24.669-.534 1.706 6.291 7.514 18.511 12.423 22.765a1218 1218 0 0 1-39.573-1.557c-8.547-.111-22.68-.528-30.887-1.439-3.765-5.051-7.15-11.943-9.17-17.893 3.2-.468 11.125-.483 14.665-.579zM239.085 55.96c3.404-.247 8.09-.303 10.94 1.652 11.834 8.12 23.863 18.854 34.982 28.008 27.41 22.566 55.626 44.733 82.615 67.712l-10.957 2.276-6.828 1.036c-1.26-16.192-6.721-16.331-19.099-25.741l-28.75-21.881-38.836-29.674c-6.409-4.888-13.127-10.245-19.927-14.602-4.684-3.001-10.594-2.74-15.969-2.595 4.258-3.112 6.67-4.828 11.829-6.19Zm799.065-6.873c9.33-.756 37.92-.44 47.56.109-1.46 18.065-.63 44.193-.78 63.144l.15 161.425c-20.73.365-43.63-.689-64.03.382.8-11.383.93-22.804.38-34.203-16.04 30.968-46.111 42.21-79.448 33.373a16 16 0 0 1-.539-.148c-14.59-4.225-28.02-17.764-35.556-31.167-22.981-40.859-9.266-112.117 40.056-126.55 19.514-5.708 51.438.963 65.087 16.89 5.19 6.06 8.21 11.187 12.02 18.282-.1-2.813.11-5.706.11-8.534-.02-30.903-1.29-61.677-1.64-92.598 5.54-.036 11.09-.17 16.63-.405m-42.119 178.775c17.389-2.471 29.489-18.58 26.999-35.973-2.48-17.392-18.6-29.472-35.986-26.976-17.372 2.495-29.44 18.593-26.955 35.966 2.478 17.374 18.57 29.451 35.942 26.983m185.819-114.126c1.01-.061 2.03-.11 3.04-.149 29.08-1.12 61.77 3.262 83.96 23.848a71.97 71.97 0 0 1 23.37 50.297c.88 24.657-2.47 42.236-19.67 61.327-15.39 17.085-39.36 25.368-62.08 26.13-1.76.169-3.53.316-5.29.439-52.37 3.611-102.39-13.846-106.49-73.7-3.77-55.168 30.09-84.779 83.16-88.192m22.97 112.986c8.94-1.525 16.24-4.696 21.61-12.356 10.04-14.338 7.34-35.926-7.36-46.065-9.32-6.427-20.28-6.559-31.06-5.818-9.07 1.215-17.59 4.193-23.19 11.746-9.75 13.127-8 36.782 5.61 46.66 9.65 7.002 22.09 7.578 33.24 6.001zM774.287 113.738q.704-.06 1.407-.086c54.063-2.006 106.787 15.542 109.747 78.135 2.314 48.834-34.497 81.843-81.898 83.397q-.91.093-1.832.176c-52.015 4.711-105.056-11.301-109.981-71.254-4.709-57.415 28.058-85.699 82.557-90.368m21.207 113.172c20.573-2.609 31.423-16.389 28.983-37.22-2.579-22.064-22.873-29.001-42.375-27.194-5.951.705-11.941 1.71-17.062 5.036-17.346 11.265-18.227 40.495-2.091 53.177 8.797 6.913 21.878 7.467 32.545 6.201M496.145 113.727c38.173-1.372 84.238 5.987 100.967 45.735-6.436 2.581-17.38 5.089-24.386 7.047a820 820 0 0 0-32.34 9.945c-8.707-9.12-15.799-13.12-29.049-14.259-33.523-2.879-49.342 33.494-26.963 56.965 5.312 5.571 14.488 8.375 22.446 8.607 14.083.41 23.703-4.762 33.761-14.249 14.37 4.675 24.917 8.041 39.801 12.028l17.253 4.278c-14.405 28.288-40.193 42.627-71.489 45.115-30.188 2.398-63.957 1.497-88.082-19.327-30.959-26.723-33.812-84.263-6.786-114.579 17.241-19.62 39.706-25.682 64.867-27.306m115.586-65.364c22.198-.262 44.817-.063 67.032.017l-.019 225.378c-21.891.535-44.929-.087-67.047.194z"/></svg>