<svg xmlns="http://www.w3.org/2000/svg" width="1062" height="322" fill="none"><g fill="#F6F6F6" clip-path="url(#a)"><path d="M869.704 130.873c17.833-2.471 30.201 6.013 43.04 16.751.493-5.452.872-9.234 1.95-14.571q16.146-.111 32.285.043l-.767 120.023c-.187 19.123.347 37.52-14.696 52.099-18.507 17.933-43.771 14.927-67.438 15.517-13.54.338-28.256.571-41.713.394-.124-5.898-.036-12.128-.051-18.055l.036-17.23c13.446-.44 29.926-.019 43.45-.039 40.405-.059 36.962-1.532 39.539-38.503-8.623 7.87-13.855 12.009-26.41 13.166-59.27 5.466-90.793-61.413-55.646-106.61 11.196-14.397 28.054-21.26 46.421-22.985m13.794 91.678c14.815-3.083 24.304-17.616 21.167-32.419s-17.703-24.238-32.498-21.048c-14.716 3.173-24.092 17.651-20.97 32.378 3.117 14.727 17.564 24.157 32.301 21.089M413.974 85.183c4.769-.462 9.878-.101 14.648-.271 43.779-1.56 69.757 14.05 86.042 55.702-9.661 3.606-34.073 12.092-43.802 13.642-3.19-6.845-10.512-16.333-17.093-19.466-17.432-8.296-50.444-6.974-59.912 12.568-6.408 13.493-5.775 31.35-2.058 45.611 6.226 23.886 36.597 25.459 56.194 19.911 12.01-3.399 18.041-12.026 23.458-22.704l7.497 2.556c6.131 2.069 32.268 10.033 34.263 14.021.171 5.218-8.999 19.087-12.052 23.558-10.535 15.429-27.85 26.059-46.516 28.704-24.737 3.507-62.479 1.754-83.492-13.355-17.297-12.439-24.109-28.122-27.233-48.736-3.918-25.848-2.27-61.932 13.416-83.956 12.853-18.046 35.917-24.52 56.64-27.785m173.18 43.879c36.9-4.867 70.752 21.113 75.595 58.013 4.838 36.9-21.168 70.731-58.073 75.543-36.869 4.806-70.658-21.166-75.491-58.027-4.838-36.86 21.11-70.666 57.969-75.529m10.506 93.659c14.685-.977 25.865-13.578 25.082-28.279-.777-14.701-13.233-26.045-27.945-25.459a26.9 26.9 0 0 0-22.857 14.584 26.9 26.9 0 0 0 1.436 27.078 26.92 26.92 0 0 0 24.284 12.076m86.625-89.712a4363 4363 0 0 1 51.295.101c.041 5.718.093 10.713.534 16.439 4.185-2.783 7.592-5.783 12.171-8.349 15.489-8.674 33.68-8.311 50.875-8.107q.11 17.544 0 35.086-7.28-.027-14.561.177c-22.972.807-39.69 9.185-39.109 34.725.155 6.699-.809 14.275-.535 21.278l.768.619 18.232.092q.189 16.926-.052 33.853c-7.233.432-17.48.053-24.927.115-18.211.152-36.526-.171-54.738.055q-.125-17.026.031-34.052l17.486-.029.062-56.637-17.595-.301q-.14-17.532.063-35.065M1015.9 69.625c23.49-1.674 37.13 17.244 25.52 39.324-2.87 5.467-10.68 8.258-16.63 9.305-7.29.579-15.11.163-21.16-4.387-10.095-7.588-12.579-24.705-4.676-34.703 4.836-6.112 9.446-8.463 16.946-9.539M64.485 0h4.127c12.468 8.687 14.24 28.883 14.777 42.734 6.436.597 10.879 1.73 17.073 3.586 13.875-14.135 32.364-29.298 53.05-30.768 3.016-.214 8.743 1.33 10.285 3.748 10.137 15.894-4.717 44.44-14.774 54.443a68.8 68.8 0 0 1-14.949 11.092c3.552 20.353 9.972 46.718 28.191 58.696 29.053 19.099 75.317 2.633 98.716 33.17a46.24 46.24 0 0 1 8.992 20.107c4.805 27.953-11.66 57.734-26.227 80.405-3.339 5.198-7.817 9.378-14.143 9.804-20.982 1.414-43.185.344-64.132.294.501-5.755.861-9.577 2.92-15.087 2.911-1.964 15.582-8.916 10.001-13.329-3.421-.211-7.654 1.623-10.906 2.568-12.128 3.526-24.701 5.068-37.018 7.78-9.929 2.187-10.532 11.118-15.628 18.007-7.68.418-64.797.384-67.032-.679-1.556-3.104 3.056-12.257 4.962-14.967 1.077-1.53 6.75-4.222 6.902-5.264 1.107-7.569-.599-19.232-3.957-25.946-3.917-7.829-11.398-13.329-16.388-20.429-12.247-16.44-18.22-34.612-17.202-55.117.413-8.32.543-16.591 3.524-24.658 2.17-5.407 6.933-19.194 14.17-18.649 5.18 1.944 5.053 9.243 3.023 13.399-8.828 18.073-8.625 43.204-.813 61.854a77.94 77.94 0 0 0 21.36 28.994c4.064 3.504 10.161 8.275 13.056 12.637 5.844 8.802 8.945 19.89 10.947 30.106-5.06 3.731-5.635 4.563-8.935 9.805 11.15 1.389 14.307 1.232 25.403.459 4.661-8.404 8.933-18.844 19.144-20.477 21.053-3.366 40.317-8.323 60.879-13.662 4.406 3.149 8.404 7.553 12.935 11.162 6.903 5.497 12.524 6.842 19.757 10.611-3.432 3.545-7.412 7.362-9.833 11.65 7.202.607 12.641.374 19.851-.199 3.837-5.351 13.635-20.45 16.22-26.194-21.109 11.593-42.737 1.503-53.9-18.255-13.787 4.359-35.205 11.584-49.107 12.171 3.684-8.537 11.524-33.123 2.012-39.374-3.517-.52-4.531 4.021-4.578 6.677-.17 9.659-2.663 27.794-10.519 34.264-6.696 5.515-29.582 8.355-35.347-.358-6.819-10.305-9.69-24.565-8.34-36.383a43.44 43.44 0 0 1 6.764-19.083c1.646-2.575 7.536-8.913.647-11.161-1.25-.408-2.949.764-3.776 1.494-5.27 3.894-10.48 19.549-16.55 20.697-2.597-.216-4.531-2.84-4.335-5.247 1.172-12.546 9.106-23.774 17.94-32.286 13.59-13.095 32.47-22.328 31.641-44.06-.656-17.19-13.695-32.81-31.054-34.974-5.71-.712-13.242 2.958-17.602-2.797-6.908-10.172 1.31-21.347 8.84-27.248a53 53 0 0 1 2.196-1.65c-22.799 3.412-14.22 14.43-30.652 20.574-8.143 3.045-23.102 4.397-32.524 7.302 4.412 1.204 14.58 3.24 13.307 9.697-.64 3.242-7.494 6.258-10.573 6.96 4.346 4.86 6.132 7.042 13.105 7.238 10.241.289 20.855 1.549 30.394-3.167 1.38-.681 3.366-2.186 4.784-1.874 2.617 4.255-1.269 11.713-5.554 13.996-6.525 3.478-11.57 3.226-18.577 3.078C18.89 117.441 5.893 112.205 0 89.063V79.67c2.004-7.048 8.006-8.303 14.417-9.79 6.928-1.605 14.025-2.924 21-4.316 2.71-3.425 5.04-7.35 8.126-11.189C43.647 37.092 46.721 8.721 64.485 0M62.5 278.93c5.13-.974 10.828-10.66 8.793-15.187-2.105 2.536-9.345 11.443-9.49 14.311zm124.489-.414c.396-.013 2.633-.053 2.826-.092 2.673-.539 7.074-8.72 6.365-10.91-1.946 1.653-9.495 8.582-9.191 11.002M982.21 133.063c19.03-.514 41.68-.178 60.78.043.9 29.023.11 62.445.08 91.831 6.13.155 12.76.078 18.93.111v33.899c-9.13.33-19.63.089-28.84.091l-50.971-.043.021-33.942 17.486-.044.005-56.638-17.501-.298z"/></g><defs><clipPath id="a"><path fill="#fff" d="M0 0h1062v322H0z"/></clipPath></defs></svg>