<svg color="#FF4301" xmlns="http://www.w3.org/2000/svg" width="231" height="232" viewBox="0 0 231 232" fill="none">
  <path d="M 133.005 0.452 C 132.308 0.896 132.75 8.712 133.903 16.337 C 134.207 18.349 134.745 22.909 135.099 26.469 C 135.453 30.03 136.096 35.584 136.528 38.811 C 136.96 42.038 137.314 45.276 137.314 46.006 C 137.314 48.388 135.764 48.144 132.386 45.231 C 130.622 43.711 125.014 39.189 119.923 35.182 C 111.908 28.875 107.011 24.977 90.19 11.514 C 88.493 10.157 85.663 7.877 83.902 6.449 C 81.151 4.218 80.459 3.905 78.993 4.228 C 78.055 4.435 77.287 4.859 77.287 5.17 C 77.287 5.817 81.574 11.526 84.71 15.058 C 85.873 16.366 86.829 17.633 86.835 17.872 C 86.841 18.111 87.746 19.32 88.846 20.559 C 89.947 21.797 91.815 24.077 92.999 25.625 C 94.183 27.173 100.342 34.899 106.687 42.794 C 113.032 50.689 118.227 57.498 118.231 57.925 C 118.242 58.845 114.89 58.46 111.937 57.203 C 110.93 56.775 104.047 54.462 96.642 52.063 C 89.236 49.664 80.653 46.829 77.568 45.763 C 74.482 44.697 70.443 43.361 68.592 42.794 C 66.74 42.227 58.33 39.462 49.902 36.649 C 41.473 33.837 34.259 31.536 33.871 31.536 C 33.047 31.536 30.725 33.878 30.725 34.708 C 30.725 35.02 32.681 36.371 35.072 37.711 C 37.463 39.051 40.361 40.742 41.512 41.471 C 42.662 42.199 43.74 42.794 43.907 42.794 C 44.074 42.794 45.255 43.456 46.531 44.264 C 47.808 45.073 49.885 46.297 51.149 46.985 C 56.821 50.075 65.399 54.902 67.189 56.014 C 71.455 58.662 75.132 60.808 75.404 60.808 C 75.562 60.808 78.006 62.165 80.837 63.823 C 89.52 68.91 93.705 71.315 97.208 73.232 C 104.262 77.091 105.637 78.222 104.291 79.056 C 103.58 79.497 89.072 80.935 78.409 81.621 C 73.318 81.948 65.366 82.594 60.738 83.055 C 56.11 83.516 50.682 83.991 48.676 84.11 C 37.948 84.745 26.719 85.679 24.03 86.159 C 22.353 86.458 19.576 86.7 17.859 86.697 C 16.141 86.693 11.642 86.988 7.861 87.353 L 0.985 88.015 L 0.39 90.233 C -0.465 93.419 -0.049 94.021 3.007 94.021 C 4.443 94.021 10.825 94.657 17.189 95.433 C 40.018 98.219 54.575 99.865 64.384 100.772 C 72.029 101.479 78.838 102.271 86.615 103.36 C 89.741 103.796 93.401 104.17 94.75 104.19 C 98.416 104.243 108.312 106.041 108.495 106.687 C 108.583 106.997 107.373 108.263 105.807 109.502 C 104.241 110.74 101.639 112.893 100.024 114.287 C 98.41 115.68 92.602 120.493 87.117 124.982 C 74.858 135.015 62.703 145.077 59.335 147.977 C 57.098 149.904 54.221 152.278 45.58 159.321 C 38.302 165.253 35.269 167.788 34.366 168.695 C 33.812 169.25 31.896 170.852 30.106 172.253 C 21.438 179.044 18.43 181.615 18.407 182.252 C 18.394 182.634 19.126 183.774 20.035 184.785 L 21.686 186.623 L 24.943 184.95 C 26.735 184.029 29.841 182.36 31.847 181.242 C 33.852 180.123 37.386 178.188 39.7 176.942 C 42.015 175.696 47.19 172.903 51.201 170.737 C 55.212 168.571 60.513 165.714 62.982 164.388 C 65.45 163.062 69.196 161 71.307 159.805 C 73.417 158.61 75.266 157.632 75.416 157.632 C 75.566 157.632 77.374 156.657 79.434 155.465 C 81.492 154.273 85.45 152.085 88.227 150.602 C 94.898 147.04 99.071 144.765 101.129 143.57 C 102.055 143.032 105.337 141.256 108.422 139.624 C 118.263 134.416 122.365 132.175 125.722 130.172 C 128.678 128.409 129.082 128.303 129.866 129.089 C 130.649 129.875 130.641 130.39 129.78 134.367 C 129.256 136.791 128.569 139.76 128.255 140.965 C 127.941 142.17 127.483 144.323 127.239 145.75 C 126.738 148.663 123.22 165.946 121.897 171.987 C 121.422 174.154 120.273 179.854 119.342 184.653 C 117.635 193.454 116.548 198.582 115.405 203.23 C 115.062 204.623 114.574 207.078 114.32 208.687 C 114.065 210.294 113.717 211.837 113.546 212.116 C 113.374 212.394 113 213.992 112.713 215.666 C 112.426 217.34 111.806 220.737 111.336 223.214 C 110.865 225.691 110.319 228.681 110.121 229.859 L 109.763 232 L 112.694 231.829 L 115.627 231.658 L 119.608 222.088 C 121.797 216.825 124.026 211.593 124.561 210.463 C 125.095 209.332 125.533 208.269 125.533 208.1 C 125.533 207.931 126.941 204.55 128.663 200.586 C 130.385 196.622 132.433 191.859 133.215 190.001 C 133.996 188.143 135.088 185.61 135.642 184.372 C 136.196 183.133 137.205 180.727 137.885 179.024 C 138.564 177.321 139.75 174.534 140.52 172.831 C 141.289 171.129 143.431 166.062 145.278 161.573 C 147.126 157.083 148.833 153.157 149.072 152.847 C 149.311 152.538 150.054 150.794 150.723 148.972 C 151.392 147.15 152.472 144.49 153.121 143.061 C 153.771 141.632 154.77 139.367 155.342 138.029 C 157.002 134.147 158.315 135.235 160.319 142.152 C 160.869 144.051 165.558 158.127 166.508 160.728 C 167.618 163.772 171.077 174.15 172.417 178.461 C 173.139 180.783 174.586 185.216 175.633 188.312 C 176.679 191.408 177.937 195.208 178.426 196.756 C 179.644 200.606 180.556 203.183 181.444 205.285 C 181.856 206.261 182.193 207.433 182.193 207.89 C 182.193 208.347 182.579 209.043 183.051 209.435 C 183.764 210.029 184.152 209.921 185.34 208.802 C 186.561 207.65 186.735 207.081 186.527 204.919 C 186.207 201.602 185.079 193.557 184.434 190.001 C 184.153 188.453 183.644 184.4 183.302 180.994 C 182.96 177.588 182.331 172.522 181.905 169.735 C 180.556 160.912 179.884 156.08 179.621 153.297 C 179.479 151.811 178.864 147.1 178.254 142.828 C 177.055 134.437 176.848 130.049 177.651 130.049 C 178.108 130.049 189.305 142.449 195.657 149.991 C 199.987 155.131 209.793 166.195 213.307 169.905 C 216.354 173.121 216.734 173.361 217.382 172.471 C 218.787 170.545 218.789 170.55 208.629 151.903 C 206.044 147.16 202.016 139.731 199.679 135.396 C 197.342 131.062 194.21 125.362 192.719 122.731 C 189.893 117.743 189.082 115.63 189.741 114.969 C 189.955 114.754 192.068 115.303 194.437 116.189 C 196.805 117.074 200.762 118.507 203.231 119.374 C 205.699 120.241 209.486 121.627 211.646 122.455 C 214.954 123.724 217.847 124.824 223.146 126.829 C 227.884 128.62 230.371 129.366 230.657 129.079 C 230.846 128.89 231 128.065 231 127.245 C 231 125.475 229.614 124.087 223.329 119.56 C 205.157 106.47 194.504 98.257 194.658 97.455 C 194.823 96.596 198.622 95.286 204.633 94.014 C 207.033 93.506 212.717 92.211 216.975 91.202 C 224.197 89.491 227.808 88.442 228.35 87.898 C 228.777 87.47 228.805 86.787 228.437 85.738 C 227.857 84.083 228.86 84.36 215.573 82.184 C 213.413 81.83 210.257 81.32 208.56 81.049 C 199.347 79.582 194.327 78.648 191.59 77.891 C 191.05 77.742 190.608 77.264 190.608 76.828 C 190.608 76.392 193.214 72.546 196.397 68.281 C 208.744 51.743 211.365 48.079 211.365 47.36 C 211.365 47.112 210.923 46.51 210.383 46.021 C 209.262 45.007 210.8 44.383 192.395 53.314 C 182.371 58.178 177.886 60.245 177.356 60.245 C 176.764 60.245 177.964 44.244 179.108 36.884 C 179.253 35.955 179.503 32.915 179.666 30.128 C 179.828 27.342 180.176 23.715 180.439 22.069 C 180.811 19.733 180.739 18.898 180.112 18.269 C 178.261 16.411 178.12 16.602 165.158 38.572 C 161.687 44.455 158.521 49.268 158.122 49.268 C 157.351 49.268 155.832 46.67 153.661 41.641 C 152.932 39.953 150.879 35.279 149.097 31.254 C 147.317 27.229 144.91 21.783 143.748 19.151 C 142.587 16.519 140.889 12.72 139.975 10.707 C 139.062 8.695 137.816 5.782 137.207 4.235 C 135.59 0.129 134.727 -0.648 133.005 0.452 Z" fill="currentColor" fill-rule="evenodd"></path>
</svg>