<svg
class="w-full h-auto" width="560" height="131" xmlns="http://www.w3.org/2000/svg" viewBox="0 0 560 131" fill="none">
<g
clip-path="url(#vokbwgolpl-clip0_1966_2240)">
<path
d="M197.514 1.62793L181.557 129.318H214.415L216.246 109.614H229.327L231.159 129.318H264.697L248.737 1.62793H197.514ZM218.547 81.8674L222.733 34.7315L226.919 81.8674H218.547Z" fill="white"></path>
<path
d="M560 60.1135C560 12.6121 551.628 0 520.077 0C490.515 0 480.889 12.2437 480.889 49.5008V81.4486C480.889 118.706 490.515 130.949 520.077 130.949C551.628 130.949 560 118.18 560 69.5733H524.787V90.2251C524.787 98.4222 523.897 100.63 520.444 100.63C516.992 100.63 516.101 98.4222 516.101 90.2251V40.7243C516.101 32.5271 516.992 30.3197 520.444 30.3197C523.897 30.3197 524.787 32.5271 524.787 40.7243V60.1135H560Z" fill="white"></path>
<path
d="M472.569 1.62793H438.09V129.318H472.569V1.62793Z" fill="white"></path>
<path
d="M306.345 0C276.208 0 266.789 12.6121 266.789 49.3405V81.6567C266.789 118.388 276.208 130.997 306.345 130.997C336.481 130.997 345.9 118.385 345.9 81.6567V49.3405C345.9 12.6093 336.481 0 306.345 0ZM310.687 90.2223C310.687 98.4194 309.797 100.627 306.345 100.627C302.892 100.627 302.002 98.4194 302.002 90.2223V40.7215C302.002 32.5243 302.892 30.3169 306.345 30.3169C309.797 30.3169 310.687 32.5243 310.687 40.7215V90.2223Z" fill="white"></path>
<path
d="M400.89 59.1684L388.542 1.62793H354.27V129.318H382.575V70.8863L396.177 129.318H429.192V1.62793H400.887V59.1684H400.89Z" fill="white"></path>
<path
d="M36.3104 38.0976H109.508L128.554 61.1649L156.495 37.8867L126.566 1.62793H0V56.3282H36.3104V38.0948V38.0976Z" fill="white"></path>
<path
d="M36.4672 56.3311L0 99.8393V129.318H36.3104V113.185L53.368 92.8485H93.7076L110.712 113.185V129.318H147.076V99.8393L110.608 56.3311H36.4672Z" fill="white"></path>
</g>
<defs>
<clipPath
id="vokbwgolpl-clip0_1966_2240">
<rect
width="560" height="131" fill="white"></rect>
</clipPath>
</defs>
</svg>